/* XPM */
static char* icon_32_xpm[] = {
"32 32 45 1",
" 	c None",
".	c #231F20",
"+	c #1C1819",
"@	c #110D0E",
"#	c #110C0D",
"$	c #1C1719",
"%	c #5B5858",
"&	c #F8F8F8",
"*	c #FFFFFF",
"=	c #696667",
"-	c #5E5B5B",
";	c #130F10",
">	c #000000",
",	c #0C0708",
"'	c #FEFEFE",
")	c #9D9B9C",
"!	c #5F5C5D",
"~	c #EFEFEF",
"{	c #1D191A",
"]	c #5D5A5B",
"^	c #F7F6F7",
"/	c #040001",
"(	c #DBDADB",
"_	c #565354",
":	c #0C0809",
"<	c #0B0708",
"[	c #726F70",
"}	c #C2C0C1",
"|	c #1B1718",
"1	c #100C0D",
"2	c #C9C8C8",
"3	c #1C1718",
"4	c #ECECEC",
"5	c #080304",
"6	c #E6E6E6",
"7	c #E9E9E9",
"8	c #120E0F",
"9	c #6D6A6B",
"0	c #B5B4B4",
"a	c #BEBDBD",
"b	c #E2E2E2",
"c	c #6C696A",
"d	c #141011",
"e	c #151112",
"f	c #151011",
"                                ",
"                                ",
"              ....              ",
"            ........            ",
"           ...+@#$...           ",
"          ...%&***=...          ",
"          ..-****** ..          ",
"         ..;********>..         ",
"         ..,*******')..         ",
"         ..,*******')..         ",
"         ..;********>..         ",
"         ...!*****'~{..         ",
"         ....]^****/...         ",
"     .........+@@(_........     ",
"     ............;.........     ",
"     ......................     ",
"     ......................     ",
"     ..........:<{.........     ",
"     .........[**}.........     ",
"     ........|****1........     ",
"     .........2''*3........     ",
"     .........<4'5.........     ",
"     ........36**78........     ",
"     ........9***'0........     ",
"     ........a****b........     ",
"     ........c****a........     ",
"     .........deef{........     ",
"     ......................     ",
"     ......................     ",
"      .....................     ",
"                                ",
"                                "};
